# xmcd
#
# Track frame offsets: 
#        150
#        29571
#        51851
#        75215
#        103429
#        124765
#        149460
#        172464
#        197969
#        220562
#        236618
#        261569
#
# Disc length: 3851 seconds
#
# Revision: 1
# Processed by: cddbd v1.5.2PL0 Copyright (c) Steve Scherf et al.
# Submitted via: ExactAudioCopyFreeDBPlugin 1.0
#
DISCID=ba0f090c
DTITLE=Lotus West - A Chillout Experience
DYEAR=2004
DGENRE=New Age
TTITLE0=Slide
TTITLE1=Wallow
TTITLE2=Javlar
TTITLE3=Anchorless
TTITLE4=Keep On Walking
TTITLE5=Love Can Sing
TTITLE6=Imagine
TTITLE7=Side Long Harlem
TTITLE8=Smooth Temptation
TTITLE9=Mountain
TTITLE10=Soon
TTITLE11=Intro
EXTD=YEAR: 2004
EXTT0=
EXTT1=
EXTT2=
EXTT3=
EXTT4=
EXTT5=
EXTT6=
EXTT7=
EXTT8=
EXTT9=
EXTT10=
EXTT11=
PLAYORDER=
